<svg width="93" height="120" viewBox="0 0 93 120" fill="none" xmlns="http://www.w3.org/2000/svg">
<path d="M79.2607 111.898C78.1474 110.321 75.8587 109.076 74.8535 108.651L67.8947 112.478C68.5133 112.71 70.3303 113.777 72.6499 116.189C75.5493 119.205 76.4771 119.553 77.8689 119.437C78.9824 119.344 79.1061 118.316 79.0287 117.813C79.2607 118.045 79.9102 118.323 80.6525 117.581C81.5803 116.653 80.6525 113.87 79.2607 111.898Z" fill="#F5D4A1"/>
<path d="M13.1562 112.209C14.4358 110.742 16.8576 109.731 17.9086 109.409L24.4789 113.974C23.8351 114.142 21.904 115.024 19.3296 117.204C16.1113 119.929 15.1458 120.181 13.7641 119.92C12.6587 119.711 12.642 118.666 12.7718 118.17C12.5153 118.379 11.8359 118.59 11.1699 117.768C10.3373 116.741 11.5568 114.044 13.1562 112.209Z" fill="#F5D4A1"/>
<path d="M7.81755 86.1506C8.46703 78.4497 9.17066 63.2253 9.44135 56.5759H84.1319C84.4025 62.7227 85.0365 77.0114 85.4075 84.9908C85.8715 94.9651 79.2609 121.292 43.8871 118.625C8.51344 115.957 7.00571 95.7769 7.81755 86.1506Z" fill="#76CCDB"/>
<path d="M78.0431 87.6947C85.4251 87.6947 91.4095 81.7104 91.4095 74.3283C91.4095 66.9464 85.4251 60.9621 78.0431 60.9621C70.6612 60.9621 64.6769 66.9464 64.6769 74.3283C64.6769 81.7104 70.6612 87.6947 78.0431 87.6947Z" fill="#EBBAAA"/>
<path d="M15.7783 88.3713C8.3964 88.3713 2.41211 82.387 2.41211 75.0049C2.41211 67.6231 8.3964 61.6387 15.7783 61.6387C23.1604 61.6387 29.1447 67.6231 29.1447 75.0049C29.1447 82.387 23.1604 88.3713 15.7783 88.3713Z" fill="#EBBAAA"/>
<path d="M11.403 51.2844C11.403 32.165 26.9024 16.6658 46.0217 16.6658C65.1409 16.6658 80.6403 32.165 80.6403 51.2844V67.6353L78.9595 87.4737C77.7701 101.513 67.7085 113.247 54.0305 116.626C48.7872 117.921 43.2837 117.897 38.0546 116.545C25.0325 113.179 15.4212 102.151 13.866 88.7905L11.403 67.6353V51.2844Z" fill="#F4D4C9"/>
<path d="M40.1628 62.3968L39.7624 60.3621C39.6876 59.9814 39.3769 59.6917 38.9916 59.6437L29.1743 58.4214C29.1318 58.4161 29.0888 58.417 29.0467 58.4242L23.6733 59.3367C23.4571 59.3733 23.2992 59.5606 23.2992 59.7796V62.3245C23.2992 62.5823 23.5156 62.7874 23.7731 62.7731L31.2606 62.3628C31.2889 62.3613 31.3174 62.3626 31.3455 62.3666L39.1562 63.4604C39.7681 63.5461 40.2821 63.0032 40.1628 62.3968Z" fill="#393939"/>
<path d="M52.8353 62.2717L53.1599 60.3851C53.2257 60.0027 53.5296 59.7056 53.9134 59.6485L63.2793 58.255C63.3216 58.2488 63.3646 58.2486 63.4069 58.255L68.5672 59.0052C68.7841 59.0367 68.9466 59.2201 68.9518 59.4391L69.009 61.8473C69.0152 62.105 68.8038 62.3151 68.5459 62.3072L61.3713 62.0853C61.343 62.0844 61.3145 62.0864 61.2867 62.091L53.8669 63.3109C53.257 63.4111 52.7305 62.8806 52.8353 62.2717Z" fill="#393939"/>
<path d="M60.9617 67.321C62.415 67.321 63.5932 68.4992 63.5932 69.9525C63.5932 71.3831 62.4515 72.547 61.0296 72.5831L60.9617 72.5839H56.8492C55.3959 72.5839 54.2178 71.4058 54.2178 69.9525C54.2178 68.5219 55.3594 67.3579 56.7813 67.3219L56.8492 67.321H60.9617Z" fill="black"/>
<path d="M35.4148 67.321C36.8681 67.321 38.0462 68.4992 38.0462 69.9525C38.0462 71.3831 36.9046 72.547 35.4827 72.5831L35.4148 72.5839H30.9194C29.4661 72.5839 28.288 71.4058 28.288 69.9525C28.288 68.5219 29.4296 67.3579 30.8515 67.3219L30.9194 67.321H35.4148Z" fill="black"/>
<path d="M44.7653 71.5563L48.1008 73.4467C46.7194 75.8841 45.6515 78.7146 45.5061 80.7942L45.4969 80.9433C45.3873 83.001 46.0954 83.8318 48.4321 83.851L48.5163 83.8514V87.6854C43.7049 87.6854 41.3808 84.8254 41.6814 80.5267C41.8708 77.8199 43.0791 74.5745 44.6712 71.7235L44.7653 71.5563Z" fill="#EBBAAA"/>
<path d="M69.864 39.4239C66.0184 34.9382 68.5338 29.3442 68.0678 25.4328C67.7378 22.6623 67.7036 21.9556 75.5793 27.761C83.4552 33.5661 84.636 46.3025 82.4934 57.1278L80.9167 69.3818H79.1624L79.7106 62.7159C79.7106 62.7159 79.3817 60.852 77.1888 58.6591C74.996 56.4662 74.2287 44.5151 69.864 39.4239Z" fill="#6E6C6C"/>
<path d="M16.4323 46.9788C16.7577 41.0797 16.0931 41.3835 16.3099 37.4508C16.4634 34.6652 17.4235 35.2748 12.4505 40.3826C9.7059 43.2018 10.0147 55.3753 10.5988 63.2965L11.2933 70.5977H13.1272C13.1272 70.5977 12.9101 67.8503 13.1272 66.5345C13.3441 65.2188 14.912 64.0684 15.3174 61.6004C15.8977 58.067 16.2409 50.4518 16.4323 46.9788Z" fill="#6E6C6C"/>
<path d="M15.5699 24.2312C21.3803 18.9684 27.1024 17.4333 34.6469 17.4333C34.9188 21.681 30.5195 22.1947 31.9061 31.1388C33.6393 42.3189 37.2183 43.0333 33.14 45.3174C29.8774 47.1447 19.8457 53.7253 17.1046 56.7953C14.3636 59.8653 14.3636 60.605 12.9382 60.8521C11.5128 61.0992 10.526 60.1489 9.21033 57.7367C7.89452 55.3245 7.73106 55.1507 6.68792 49.9974C5.64477 44.8442 7.11697 31.8874 15.5699 24.2312Z" fill="#272727"/>
<path d="M32.4542 55.8085C28.9456 56.0278 19.6314 58.8369 18.0909 57.2334C9.64862 38.7042 23.0514 19.1455 30.8093 16.6658C54.8214 8.99074 73.8911 20.0499 79.2719 28.1784C84.4251 35.9631 85.083 52.7385 83.548 54.6024C81.6586 56.8966 77.4588 58.436 73.3512 57.2334C69.2435 56.0307 61.1777 57.1313 57.8915 55.8085C55.2624 54.75 46.0502 55.9179 40.6775 55.8085C37.9158 55.7522 37.8044 44.6365 35.6339 44.6249C32.7831 44.6095 34.1594 55.7019 32.4542 55.8085Z" fill="#272727"/>
<path d="M51.9892 93.6279C52.8523 93.2748 53.8382 93.6882 54.1912 94.5513C54.5443 95.4144 54.1309 96.4002 53.2678 96.7533C47.7976 98.9911 42.7276 99.053 38.4321 96.6665C37.6169 96.2137 37.3232 95.1858 37.7761 94.3706C38.2289 93.5555 39.2569 93.2618 40.072 93.7146C43.3834 95.5543 47.3999 95.5053 51.9892 93.6279Z" fill="#C99584"/>
<path fill-rule="evenodd" clip-rule="evenodd" d="M49.6964 65.7098C52.7328 64.5948 56.6094 63.7673 61.2214 63.571L61.4693 63.561C65.917 63.3909 69.6264 63.7661 72.5266 64.4341C73.6697 64.6972 74.4643 65.6976 74.5252 66.8861C74.6709 69.7251 74.7721 72.2668 74.7837 73.9224L74.7848 74.2284C74.7848 75.7443 74.4472 77.4322 73.914 79.1258C73.5664 80.2307 72.5311 80.9595 71.3559 80.9715L53.6324 81.1498C52.616 81.1599 51.6813 80.631 51.2044 79.7488C50.0956 77.6969 49.2083 75.5546 48.8296 73.5828C48.5042 71.8888 48.2449 70.1353 48.0469 68.4612C47.9045 67.2557 48.5683 66.1243 49.6964 65.7098ZM73.2113 66.9534C73.1797 66.3382 72.7873 65.8441 72.2314 65.7162C69.3896 65.0617 65.7141 64.6968 61.2774 64.8855C56.8074 65.0757 53.0637 65.8748 50.1501 66.9447C49.6041 67.1454 49.2814 67.6955 49.3536 68.3067C49.5481 69.9516 49.803 71.675 50.1217 73.3346C50.4698 75.1473 51.3116 77.1794 52.362 79.1231C52.6024 79.5679 53.0822 79.8394 53.6193 79.8341L71.3426 79.6557C71.9608 79.6494 72.4864 79.2794 72.659 78.7308C73.1555 77.1537 73.4691 75.5858 73.4691 74.2284C73.4691 72.749 73.381 70.3711 73.2472 67.6661L73.2113 66.9534Z" fill="black"/>
<path d="M42.5163 67.1518C44.2807 66.2957 46.8974 66.0773 49.1044 67.0996L49.2144 67.1518L48.2573 69.1247C46.7283 68.383 44.7869 68.5194 43.5471 69.0899L43.4736 69.1247L42.5163 67.1518Z" fill="black"/>
<path fill-rule="evenodd" clip-rule="evenodd" d="M16.6137 67.3461C16.6471 66.2212 17.3488 65.2509 18.4091 64.9262C21.6188 63.9435 25.7075 63.4038 30.5156 63.7371C35.2043 64.0621 39.127 64.9988 42.1843 66.1989C43.3109 66.6408 43.9527 67.7974 43.7756 69.006C43.5311 70.6726 43.2232 72.4125 42.8501 74.0919C42.4129 76.0601 41.4509 78.1839 40.2663 80.2085C39.7645 81.0658 38.8245 81.5609 37.8179 81.5248L20.2534 80.8963C19.1073 80.8555 18.1069 80.1345 17.7532 79.0584C17.1892 77.3422 16.782 75.5977 16.6639 73.9977C16.5478 72.4265 16.5386 70.2949 16.5963 67.9813L16.6137 67.3461ZM41.7036 67.4237C38.7661 66.2706 34.9736 65.3651 30.4246 65.0498L30.1852 65.0339C25.6503 64.7462 21.8036 65.263 18.7943 66.1843C18.2865 66.3398 17.9458 66.8109 17.9288 67.3852C17.8582 69.763 17.8539 71.9906 17.9572 73.6264L17.9759 73.9009C18.0849 75.376 18.4696 77.0244 19.0031 78.6477C19.1813 79.19 19.6947 79.56 20.3002 79.5815L37.865 80.21C38.3965 80.2291 38.8782 79.9753 39.1307 79.544C40.2521 77.6273 41.1642 75.6137 41.5656 73.8067C41.9311 72.162 42.2336 70.4523 42.4737 68.8152C42.5636 68.2021 42.2507 67.6384 41.7036 67.4237Z" fill="black"/>
<path d="M3.63921 63.5526C5.7889 62.2824 8.8506 62.2906 10.1128 62.4533C11.7006 63.3083 10.6014 67.339 9.74637 68.0718C8.8913 68.8047 4.12778 71.3697 2.29564 70.759C0.463524 70.1483 2.05136 68.4383 1.56281 68.5604C1.07424 68.6825 0.219238 68.0718 0.219238 67.339C0.219238 66.6061 0.952094 65.1404 3.63921 63.5526Z" fill="#EFD19F"/>
<path d="M88.9435 61.7088C86.7844 60.4273 83.7089 60.4354 82.4412 60.5999C80.8463 61.4623 81.9505 65.5288 82.8094 66.2682C83.6681 67.0074 88.4527 69.5952 90.293 68.979C92.1335 68.3631 90.5384 66.6377 91.0291 66.7609C91.5199 66.8842 92.3788 66.2682 92.3788 65.5288C92.3788 64.7893 91.6427 63.3107 88.9435 61.7088Z" fill="#EFD19F"/>
<path d="M83.1638 67.7596C81.8205 68.5122 75.85 49.6072 45.6812 50.0958C15.5122 50.5844 10.8602 70.5954 9.59273 69.9524C8.32528 69.3095 4.83706 49.3873 5.1302 37.2708C5.49663 22.1251 8.67212 0.750421 45.6812 0.0175698C82.69 -0.71528 85.2552 21.6367 85.3773 37.2708C85.4751 49.7781 84.5074 67.007 83.1638 67.7596Z" fill="#76CCDB"/>
<path d="M40.6727 45.2102C38.7184 43.8421 38.8814 39.673 39.207 37.7595L44.9482 35.5609V42.7674C44.9482 44.3552 43.1156 46.9202 40.6727 45.2102Z" fill="white"/>
<path d="M46.1696 45.6988C44.2154 44.3306 44.7458 37.4744 45.0715 35.5609H50.644V42.7674C50.644 45.6988 48.6123 47.4088 46.1696 45.6988Z" fill="white"/>
<path d="M35.9096 34.3395C36.1539 31.5302 40.7954 29.8202 44.7039 29.698C50.2003 29.698 52.3987 31.1638 54.353 32.8738C56.3073 34.5838 56.5515 37.8814 53.2537 38.4921C49.9558 39.1028 47.8794 37.0264 45.5587 36.9042C43.238 36.7821 41.1618 38.4921 39.2075 38.4921C37.2532 38.4921 35.6654 37.1485 35.9096 34.3395Z" fill="#F6D59F"/>
<path d="M39.8185 30.1866C39.6964 28.5988 41.1621 26.0338 45.0707 25.9116C49.7123 25.9116 50.8109 27.988 50.8109 29.3316C50.8109 30.6752 49.4674 32.6295 45.559 32.7516C41.6504 32.8738 39.9407 31.7745 39.8185 30.1866Z" fill="black"/>
<path d="M47.0262 18.7054C46.5377 12.354 52.8887 5.75835 60.7062 6.36904C68.5236 6.97975 71.3322 11.0104 72.065 16.2625C72.7979 21.5146 71.3322 27.3774 62.2936 29.2095C53.2551 31.0417 47.5148 25.0567 47.0262 18.7054Z" fill="white"/>
<path d="M49.7116 18.5831C49.7116 17.3617 50.8109 14.9188 53.3759 14.7967C56.5516 14.7967 57.2845 17.7281 57.2845 18.5831C57.2845 19.4381 56.6737 22.7358 53.3759 22.7358C50.078 22.7358 49.7116 19.8045 49.7116 18.5831Z" fill="black"/>
<path d="M16.1491 19.8438C15.6605 13.4925 22.0115 6.89681 29.8291 7.50752C37.6464 8.11823 40.4551 12.1489 41.1879 17.401C41.9208 22.6531 40.4551 28.516 31.4165 30.3481C22.3779 32.1803 16.6377 26.1953 16.1491 19.8438Z" fill="white"/>
<path d="M18.8348 19.7218C18.8348 18.5004 19.9341 16.0575 22.4991 15.9354C25.6745 15.9354 26.4074 18.8668 26.4074 19.7218C26.4074 20.5768 25.7967 23.8747 22.4991 23.8747C19.2012 23.8747 18.8348 20.9432 18.8348 19.7218Z" fill="black"/>
<path d="M85.6214 6.73529C80.7359 2.72903 75.443 6.61315 73.4073 9.05598L78.7816 21.7587C79.5958 22.3288 82.1038 22.9801 85.6214 21.0259C90.0185 18.5831 91.7285 11.7431 85.6214 6.73529Z" fill="#76CCDB"/>
<path d="M81.5599 10.8131C79.7157 9.28863 77.7178 10.7666 76.9494 11.6962L78.978 16.53C79.2852 16.7469 80.2319 16.9948 81.5599 16.2511C83.2197 15.3215 83.865 12.7187 81.5599 10.8131Z" fill="black"/>
<path d="M4.07077 8.70979C9.08697 4.70095 14.5212 8.58759 16.6112 11.032L11.0935 23.743C10.2573 24.3134 7.68242 24.9653 4.07077 23.0097C-0.443819 20.5652 -2.19949 13.7209 4.07077 8.70979Z" fill="#76CCDB"/>
<path d="M8.15206 12.7675C10.07 11.243 12.1478 12.721 12.9471 13.6506L10.8371 18.4843C10.5176 18.7013 9.53299 18.9491 8.15206 18.2055C6.42588 17.2759 5.7546 14.6731 8.15206 12.7675Z" fill="black"/>
</svg>
